<svg xmlns="http://www.w3.org/2000/svg" viewBox="0 0 64 64" role="img" aria-label="Quiz icon">
  <defs>
    <linearGradient id="g" x1="0%" y1="0%" x2="100%" y2="100%">
      <stop offset="0%" stop-color="#7c3aed" />
      <stop offset="100%" stop-color="#22d3ee" />
    </linearGradient>
  </defs>
  <rect width="64" height="64" rx="14" fill="url(#g)" />
  <path
    fill="#ffffff"
    d="M32 17c-6.6 0-12 4.5-12 10.8 0 3.8 1.9 6.2 4.9 8.3 1.5 1 2.1 1.7 2.1 3v1.9h6v-2c0-2.6-0.9-4.3-3.4-6.1-2.1-1.5-3-2.6-3-4.4 0-2.8 2.4-5 5.4-5s5.3 2 5.3 4.8c0 1.6-0.5 2.6-1.8 3.9-0.5 0.5-0.9 1-1.2 1.5l4.6 2.5c0.6-0.8 1.2-1.6 1.8-2.6 1-1.8 1.6-3.5 1.6-5.6C42.3 21.4 37.4 17 32 17Zm-3 28.2c0 1.8 1.4 3.1 3 3.1s3-1.3 3-3.1-1.4-3.2-3-3.2-3 1.4-3 3.2Z"
  />
</svg>

